<?xml version="1.0" standalone="no"?>
<!DOCTYPE svg PUBLIC "-//W3C//DTD SVG 1.1//EN" "http://www.w3.org/Graphics/SVG/1.1/DTD/svg11.dtd" >
<svg xmlns="http://www.w3.org/2000/svg">
<metadata></metadata>
<defs>
<font id="neristhin" horiz-adv-x="683" >
<font-face units-per-em="1000" ascent="755" descent="-245" />
<missing-glyph horiz-adv-x="219" />
<glyph horiz-adv-x="1000" />
<glyph horiz-adv-x="1000" />
<glyph unicode="&#xd;" horiz-adv-x="371" />
<glyph unicode=" "  horiz-adv-x="219" />
<glyph unicode="&#x09;" horiz-adv-x="219" />
<glyph unicode="&#xa0;" horiz-adv-x="219" />
<glyph unicode="!" horiz-adv-x="223" d="M79 30q0 39 37 39q38 0 38 -39q0 -40 -38 -40q-37 0 -37 40zM90 352v324q0 8 8 8h27q8 0 8 -8v-324q0 -36 -3 -105.5t-3 -98.5q0 -8 -8 -8h-15q-8 0 -8 8q0 29 -3 98.5t-3 105.5z" />
<glyph unicode="&#x22;" horiz-adv-x="281" d="M57 662v31q0 8 8 8h37q8 0 8 -8v-31q0 -14 -8 -89q-2 -8 -9 -8h-18q-7 0 -9 8q-9 84 -9 89zM170 662v31q0 8 8 8h37q8 0 8 -8v-31q0 -14 -8 -89q-2 -8 -9 -8h-18q-7 0 -9 8q-9 84 -9 89z" />
<glyph unicode="#" horiz-adv-x="718" d="M57 161l4 24q1 7 8 7h106l42 300h-105q-9 0 -7 8l2 24q0 8 8 8h108l20 144q1 7 8 7h25q10 0 8 -9l-20 -142h243l20 144q1 7 8 7h25q10 0 8 -9l-20 -142h106q9 0 7 -8l-2 -24q-2 -8 -9 -8h-108l-42 -300h106q10 0 8 -9l-4 -24q-1 -7 -8 -7h-108l-20 -145q-1 -7 -8 -7h-25 q-9 0 -8 9l20 143h-243l-20 -145q-1 -7 -8 -7h-25q-9 0 -8 9l20 143h-104q-9 0 -8 9zM216 192h243l42 300h-243z" />
<glyph unicode="$" horiz-adv-x="589" d="M67 47l8 24q3 8 11 5l32 -13q75 -29 157 -31v301l-60 22q-74 28 -106.5 69.5t-32.5 101.5q0 76 53.5 120.5t145.5 46.5v80q0 8 8 8h26q8 0 8 -8v-81q52 -4 115 -23l47 -15q8 -2 5 -10l-8 -23q-2 -8 -10 -5l-45 15q-49 15 -104 20v-290l66 -25q68 -26 105 -64t37 -99 q0 -78 -57.5 -126.5t-150.5 -55.5v-84q0 -8 -8 -8h-26q-8 0 -8 8v83q-89 3 -171 35l-33 12q-7 4 -4 10zM120 526q0 -42 23.5 -75.5t88.5 -57.5l43 -16v275q-71 -2 -113 -36t-42 -90zM317 33q72 6 118 43.5t46 96.5q0 82 -112 125l-52 19v-284z" />
<glyph unicode="%" horiz-adv-x="746" d="M65 539q0 68 37.5 106.5t103.5 38.5t103 -38.5t37 -106.5t-37 -107t-103 -39t-103.5 39t-37.5 107zM106 539q0 -50 26.5 -78.5t73.5 -28.5q46 0 72.5 28.5t26.5 78.5t-26.5 78t-72.5 28q-47 0 -73.5 -28t-26.5 -78zM122 10l459 659q5 5 10 5h29q12 0 5 -10l-459 -659 q-5 -5 -10 -5h-29q-12 0 -5 10zM401 136q0 68 37 106t104 38q65 0 102 -38t37 -106q0 -69 -37 -107.5t-102 -38.5q-67 0 -104 38.5t-37 107.5zM441 136q0 -50 26.5 -78t74.5 -28q46 0 72.5 28t26.5 78q0 49 -26 77t-73 28q-48 0 -74.5 -27.5t-26.5 -77.5z" />
<glyph unicode="&#x26;" horiz-adv-x="670" d="M54 125q0 40 15 72.5t59 75.5l88 89q-76 79 -76 165q0 75 53.5 120.5t138.5 45.5q55 0 131 -22l33 -11q8 -3 5 -11l-8 -23q-2 -8 -10 -6l-33 11q-66 21 -118 21q-67 0 -108 -34t-41 -91q0 -39 13.5 -69.5t50.5 -69.5l186 -194l10 10q34 35 46.5 49.5t23 36.5t10.5 48v32 h-64q-8 0 -8 8v23q0 8 8 8h98q8 0 8 -8v-63q0 -45 -20 -77t-75 -88l-8 -8l149 -155q3 -4 1.5 -7t-6.5 -3h-35q-6 0 -10 4l-127 132l-74 -74q-40 -41 -77 -56.5t-86 -15.5q-66 0 -104.5 36.5t-38.5 98.5zM97 125q0 -44 26.5 -68.5t73.5 -24.5q43 0 72.5 12.5t62.5 47.5l73 74 l-161 167l-90 -90q-34 -35 -45.5 -60.5t-11.5 -57.5z" />
<glyph unicode="'" horiz-adv-x="167" d="M57 662v31q0 8 8 8h37q8 0 8 -8v-31q0 -14 -8 -89q-2 -8 -9 -8h-18q-7 0 -9 8q-9 84 -9 89z" />
<glyph unicode="(" horiz-adv-x="324" d="M112 320q0 211 83 411q3 6 10 6h26q10 0 6 -9q-83 -208 -83 -408q0 -202 83 -409q4 -9 -6 -9h-26q-7 0 -10 6q-83 202 -83 412z" />
<glyph unicode=")" horiz-adv-x="324" d="M87 -89q83 208 83 409q0 200 -83 408q-4 9 6 9h26q7 0 10 -6q83 -200 83 -411q0 -210 -83 -412q-3 -6 -10 -6h-26q-10 0 -6 9z" />
<glyph unicode="*" horiz-adv-x="383" d="M47 554v22q0 8 8 8h59q7 0 14 -0.5t14.5 -1.5t12.5 -1h9q0 2 -1 4q-14 17 -21 28l-44 78q-5 10 6 10h26q6 0 9 -6l35 -60q8 -14 14 -34q1 -3 2.5 -4t3.5 0t2 4q4 18 12 32l36 62q3 6 9 6h27q11 0 6 -10l-45 -78q-3 -6 -21 -28q-2 -3 -1 -3q0 -1 9 -1q5 0 16 1.5t16 1.5 h68q8 0 8 -8v-22q0 -8 -8 -8h-67q-17 0 -39 3q-3 1 -4 -1t1 -5q23 -28 23 -29l43 -77q5 -10 -6 -10h-27q-6 0 -9 6l-35 61q-5 9 -13 33q-3 12 -7 0q-11 -29 -14 -34l-34 -60q-3 -6 -9 -6h-26q-11 0 -6 10l41 73q4 8 23 34q1 2 1 4q-1 3 -9 1q-1 0 -16 -1.5t-25 -1.5h-59 q-8 0 -8 8z" />
<glyph unicode="+" horiz-adv-x="636" d="M85 251v24q0 8 8 8h204v224q0 8 8 8h25q8 0 8 -8v-224h205q8 0 8 -8v-24q0 -8 -8 -8h-205v-224q0 -8 -8 -8h-25q-8 0 -8 8v224h-204q-8 0 -8 8z" />
<glyph unicode="," horiz-adv-x="207" d="M56 -105l37 81q9 14 -5 18q-24 7 -24 37q0 19 11 29.5t29 10.5q17 0 28 -12.5t11 -31.5q0 -29 -17 -63l-31 -69h-39z" />
<glyph unicode="-" horiz-adv-x="442" d="M85 251v24q0 8 8 8h256q8 0 8 -8v-24q0 -8 -8 -8h-256q-8 0 -8 8z" />
<glyph unicode="." horiz-adv-x="213" d="M69 30q0 39 37 39q38 0 38 -39q0 -40 -38 -40q-37 0 -37 40z" />
<glyph unicode="/" horiz-adv-x="446" d="M35 -89l343 821q3 6 10 6h27q10 0 6 -9l-343 -821q-3 -6 -10 -6h-27q-10 0 -6 9z" />
<glyph unicode="0" horiz-adv-x="624" d="M64 342q0 164 66 257.5t182 93.5t182 -94t66 -257q0 -164 -66 -258t-182 -94t-182 94t-66 258zM107 342q0 -147 54 -229t151 -82q96 0 150.5 82t54.5 229q0 146 -54.5 228.5t-150.5 82.5q-97 0 -151 -82.5t-54 -228.5z" />
<glyph unicode="1" horiz-adv-x="299" d="M52 610q-3 7 4 11l130 69q7 3 13.5 -1t6.5 -11v-670q0 -8 -8 -8h-26q-8 0 -8 8v565q0 10 1.5 27.5t1.5 20.5q0 9 -6 9q-2 0 -6 -2l-81 -44q-6 -4 -11 3z" />
<glyph unicode="2" horiz-adv-x="564" d="M74 8v28q0 152 117 235l174 126q87 62 87 128q0 58 -45.5 93t-121.5 35t-137 -21l-46 -15q-8 -3 -10 5l-7 22q-3 8 5 10l46 15q80 24 149 24q96 0 153 -45t57 -123q0 -83 -107 -160l-173 -127q-99 -69 -99 -198h362q8 0 8 -8v-24q0 -8 -8 -8h-396q-8 0 -8 8z" />
<glyph unicode="3" horiz-adv-x="551" d="M62 39l7 22q3 8 11 6l47 -15q76 -21 138 -21q80 0 129.5 41.5t49.5 110.5q0 75 -48.5 116t-135.5 41h-32q-8 0 -8 8v23q0 8 8 8h32q77 0 121 37t44 100t-43 100t-114 37q-67 0 -129 -19l-41 -13q-8 -2 -10 6l-7 22q-3 8 5 10l40 13q72 21 142 21q91 0 145.5 -47 t54.5 -129q0 -112 -98 -149q-19 -7 0 -12q57 -19 87 -64t30 -110q0 -88 -60.5 -140t-161.5 -52q-65 0 -150 24l-48 15q-8 2 -5 10z" />
<glyph unicode="4" horiz-adv-x="593" d="M49 211v27q0 6 4 10q14 17 34.5 41t27.5 32l250 299q22 24 41 57q3 6 9 6h36q8 0 8 -8v-432h62q8 0 8 -8v-23q0 -8 -8 -8h-62v-196q0 -8 -8 -8h-26q-8 0 -8 8v195h-360q-8 0 -8 8zM109 254q-9 -11 2 -11h306v302q0 39 5 64q1 7 -3.5 8.5t-9.5 -4.5l-252 -303 q-6 -7 -24.5 -29t-23.5 -27z" />
<glyph unicode="5" horiz-adv-x="585" d="M72 39l8 23q3 7 10 5l46 -15q69 -21 136 -21q95 0 148.5 47.5t53.5 130.5q0 82 -48 127.5t-137 45.5q-57 0 -108 -9l-55 -7q-6 -1 -10 3l-9 8q-5 4 -5 10v288q0 8 8 8h354q10 0 6 -9l-7 -23q-1 -7 -9 -7h-310v-175q0 -34 -2 -50q-2 -7 1 -10t10 -1l28 4q64 11 109 11 q108 0 167 -56.5t59 -157.5q0 -103 -64.5 -161t-179.5 -58q-64 0 -149 24l-46 15q-8 2 -5 10z" />
<glyph unicode="6" horiz-adv-x="594" d="M64 213q0 74 23.5 130.5t71.5 122.5l156 212q4 5 10 5h34q12 0 5 -10l-171 -229l-19.5 -26t-24.5 -34q-5 -8 -1.5 -11t12.5 3q60 41 142 41q110 0 171.5 -56t61.5 -158q0 -101 -62 -157t-174 -56q-115 0 -175 57.5t-60 165.5zM107 203q0 -81 50 -126.5t142 -45.5 t142.5 45.5t50.5 126.5q0 82 -50.5 128t-142.5 46t-142 -46t-50 -128z" />
<glyph unicode="7" horiz-adv-x="564" d="M50 652v23q0 8 8 8h441q6 0 12.5 -9.5t0.5 -15.5q-17 -26 -43 -82l-258 -570q-3 -6 -10 -6h-29q-10 0 -6 9l262 578q9 21 27 45q7 12 -9 12h-388q-8 0 -8 8z" />
<glyph unicode="8" horiz-adv-x="606" d="M64 179q0 59 36 107.5t97 67.5q5 1 7 3.5t0 5.5t-7 4q-113 35 -113 149q0 82 58.5 129.5t160.5 47.5t159.5 -47.5t57.5 -129.5q0 -114 -113 -149q-5 -1 -7 -3.5t0 -5.5t7 -4q62 -19 98.5 -67.5t36.5 -107.5q0 -88 -63.5 -138.5t-175.5 -50.5t-175.5 50.5t-63.5 138.5z M107 180q0 -70 52.5 -109.5t143.5 -39.5q92 0 144 39.5t52 109.5q0 72 -56.5 116t-139.5 44q-84 0 -140 -43.5t-56 -116.5zM127 515q0 -63 47 -99t129 -36q80 0 127.5 36t47.5 99q0 64 -47 101t-128 37q-82 0 -129 -37t-47 -101z" />
<glyph unicode="9" horiz-adv-x="594" d="M59 480q0 101 62 157t174 56q115 0 175 -57.5t60 -165.5q0 -74 -23.5 -130.5t-71.5 -122.5l-156 -212q-4 -5 -10 -5h-34q-12 0 -5 10l171 229l19.5 26t24.5 34q5 8 1.5 11t-12.5 -3q-60 -41 -142 -41q-110 0 -171.5 56t-61.5 158zM102 480q0 -82 50.5 -128t142.5 -46 t142 46t50 128q0 81 -50 126.5t-142 45.5t-142.5 -45.5t-50.5 -126.5z" />
<glyph unicode=":" horiz-adv-x="203" d="M69 30q0 39 37 39q38 0 38 -39q0 -40 -38 -40q-37 0 -37 40zM69 447q0 39 37 39q38 0 38 -39q0 -40 -38 -40q-37 0 -37 40z" />
<glyph unicode=";" horiz-adv-x="215" d="M65 -101l37 81q9 14 -5 18q-24 7 -24 37q0 19 11 29.5t29 10.5q17 0 28 -12.5t11 -31.5q0 -29 -17 -63l-31 -69h-39zM78 447q0 39 37 39q38 0 38 -39q0 -40 -38 -40q-37 0 -37 40z" />
<glyph unicode="&#x3c;" horiz-adv-x="636" d="M85 241v23q0 7 6 10l451 207q9 4 9 -6v-27q0 -7 -6 -10l-408 -186l408 -185q6 -3 6 -10v-28q0 -10 -9 -6l-451 208q-6 3 -6 10z" />
<glyph unicode="=" horiz-adv-x="607" d="M85 144v24q0 8 8 8h422q8 0 8 -8v-24q0 -8 -8 -8h-422q-8 0 -8 8zM85 358v24q0 8 8 8h422q8 0 8 -8v-24q0 -8 -8 -8h-422q-8 0 -8 8z" />
<glyph unicode="&#x3e;" horiz-adv-x="636" d="M85 29v28q0 7 6 10l408 185l-408 186q-6 3 -6 10v27q0 10 9 6l451 -207q6 -3 6 -10v-23q0 -7 -6 -10l-451 -208q-9 -4 -9 6z" />
<glyph unicode="?" horiz-adv-x="541" d="M56 645q-2 8 6 10l47 14q80 24 151 24q98 0 155 -42t57 -116q0 -94 -106 -167l-38 -27q-73 -51 -73 -118v-76q0 -8 -8 -8h-25q-8 0 -8 8v76q0 90 89 151l39 26q88 59 88 135q0 53 -46.5 84.5t-123.5 31.5q-64 0 -138 -20l-47 -15q-8 -2 -11 6zM203 30q0 39 37 39 q38 0 38 -39q0 -40 -38 -40q-37 0 -37 40z" />
<glyph unicode="@" horiz-adv-x="865" d="M75 247q0 158 97 254.5t256 96.5q163 0 262.5 -92.5t99.5 -243.5q0 -58 -28.5 -89t-76.5 -31q-46 0 -73 25t-59 97q-23 55 -52 77t-72 22q-55 0 -85 -30t-30 -83q0 -56 33.5 -88t92.5 -32q34 0 89 15l17 4q5 1 10 -4q15 -15 20 -18q10 -7 -1 -10l-33 -10 q-53 -17 -102 -17q-79 0 -123.5 42.5t-44.5 117.5q0 72 41.5 112.5t115.5 40.5q55 0 92 -26.5t65 -90.5q28 -63 47.5 -83.5t51.5 -20.5q28 0 45.5 21t17.5 59q0 133 -88 214t-232 81q-140 0 -226 -85.5t-86 -224.5q0 -140 84 -225.5t221 -85.5q87 0 191 30l52 16q8 2 10 -5 l8 -24q3 -8 -5 -10l-54 -16q-99 -32 -202 -32q-156 0 -251 97t-95 255z" />
<glyph unicode="A" d="M48 9l221 526q30 71 49 141q1 7 9 7h28q8 0 9 -7q15 -55 49 -141l222 -526q4 -9 -6 -9h-29q-7 0 -10 6l-78 189h-341l-78 -189q-3 -6 -10 -6h-29q-10 0 -6 9zM188 236h306l-112 266q-24 57 -35 108q-1 3 -3.5 4.5t-5 0t-2.5 -4.5q-14 -55 -36 -108z" />
<glyph unicode="B" horiz-adv-x="643" d="M93 8v667q0 8 8 8h265q92 0 143.5 -43t51.5 -119q0 -57 -28.5 -100t-82.5 -62q-9 -2 -9 -6.5t10 -6.5q64 -16 98.5 -60t34.5 -111q0 -83 -54 -129t-151 -46h-278q-8 0 -8 8zM136 40h243q75 0 118 36t43 100q0 76 -57.5 115.5t-166.5 39.5h-180v-291zM136 371h178 q97 0 150 40t53 109q0 57 -40.5 90.5t-110.5 33.5h-230v-273z" />
<glyph unicode="C" horiz-adv-x="596" d="M59 342q0 163 75.5 257t207.5 94q75 0 141 -25l41 -15q8 -3 5 -11l-9 -23q-4 -7 -10 -4l-42 15q-53 21 -126 22q-114 0 -176.5 -81.5t-62.5 -228.5q0 -146 62.5 -228t176.5 -82q67 0 129 23l39 14q8 3 11 -4l8 -23q3 -8 -4 -11l-40 -14q-72 -27 -143 -27 q-132 0 -207.5 94.5t-75.5 257.5z" />
<glyph unicode="D" horiz-adv-x="657" d="M93 8v667q0 8 8 8h216q131 0 206 -91t75 -250t-75 -250.5t-206 -91.5h-216q-8 0 -8 8zM136 40h181q112 0 174.5 80t62.5 222t-62.5 222t-174.5 80h-181v-604z" />
<glyph unicode="E" horiz-adv-x="597" d="M93 8v667q0 8 8 8h427q9 0 6 -9l-6 -23q-1 -7 -9 -7h-383v-273h327q8 0 8 -8v-24q0 -8 -8 -8h-327v-291h398q8 0 8 -8v-24q0 -8 -8 -8h-433q-8 0 -8 8z" />
<glyph unicode="F" horiz-adv-x="582" d="M93 8v667q0 8 8 8h419q9 0 6 -9l-7 -23q-1 -7 -9 -7h-374v-293h328q8 0 8 -8v-24q0 -8 -8 -8h-328v-303q0 -8 -8 -8h-27q-8 0 -8 8z" />
<glyph unicode="G" horiz-adv-x="643" d="M59 342q0 163 75 257t207 94q41 0 71 -5.5t73 -20.5l39 -15q7 -4 4 -10l-8 -23q-3 -8 -11 -5l-39 14q-65 24 -129 24q-113 0 -175.5 -82t-62.5 -228q0 -147 62.5 -228.5t175.5 -81.5q68 1 127 21l54 20v212h-145q-9 0 -6 9l7 23q1 7 9 7h169q8 0 8 -8v-263q0 -3 -1 -4.5 t-2.5 -3t-3 -2.5t-4.5 -1.5t-4 -1.5l-66 -24q-71 -26 -142 -26q-132 0 -207 94t-75 258z" />
<glyph unicode="H" horiz-adv-x="684" d="M93 8v667q0 8 8 8h27q8 0 8 -8v-304h412v304q0 8 8 8h26q8 0 8 -8v-667q0 -8 -8 -8h-26q-8 0 -8 8v323h-412v-323q0 -8 -8 -8h-27q-8 0 -8 8z" />
<glyph unicode="I" horiz-adv-x="229" d="M93 8v667q0 8 8 8h27q8 0 8 -8v-667q0 -8 -8 -8h-27q-8 0 -8 8z" />
<glyph unicode="J" horiz-adv-x="412" d="M51 20l8 23q2 7 10 5l25 -8q27 -8 63 -8q54 0 84.5 36.5t30.5 103.5v503q0 8 8 8h27q8 0 8 -8v-503q0 -84 -42.5 -133t-115.5 -49q-41 0 -73 11l-27 9q-8 2 -6 10z" />
<glyph unicode="K" horiz-adv-x="617" d="M93 8v667q0 8 8 8h27q8 0 8 -8v-304h24q113 0 228 150l121 157q4 5 10 5h33q12 0 5 -10l-135 -176q-34 -46 -81 -85t-81 -54q-15 -6 0 -12q83 -31 171 -150l139 -186q7 -10 -5 -10h-34q-6 0 -10 5l-124 168q-116 158 -235 158h-26v-323q0 -8 -8 -8h-27q-8 0 -8 8z" />
<glyph unicode="L" horiz-adv-x="558" d="M93 8v667q0 8 8 8h27q8 0 8 -8v-635h355q8 0 8 -8v-24q0 -8 -8 -8h-390q-8 0 -8 8z" />
<glyph unicode="M" horiz-adv-x="792" d="M93 8v667q0 8 8 8h49q8 0 9 -7q9 -32 33 -82l172 -372q14 -29 25 -64q1 -5 4 -6.5t6 0t4 6.5q10 33 25 63l172 372q23 49 33 83q1 7 9 7h49q8 0 8 -8v-667q0 -8 -8 -8h-27q-8 0 -8 8v493q0 61 4 102q0 6 -2 9t-5 1.5t-5 -7.5q-12 -33 -34 -80l-155 -332q-15 -33 -40 -98 q-1 -6 -9 -6h-28q-8 0 -9 6q-27 70 -40 99l-155 330q-20 47 -34 81q-3 10 -8.5 8t-3.5 -11q4 -41 4 -102v-493q0 -8 -8 -8h-27q-8 0 -8 8z" />
<glyph unicode="N" horiz-adv-x="696" d="M93 8v667q0 8 8 8h34q7 0 10 -6q22 -48 57 -95l321 -450q23 -33 32 -56q1 -4 4 -4.5t5 2t1 6.5q-5 25 -5 73v522q0 8 8 8h27q8 0 8 -8v-667q0 -8 -8 -8h-33q-7 0 -10 6q-20 40 -58 97l-321 450q-22 33 -31 55q-2 5 -7 4t-4 -8q6 -32 6 -73v-523q0 -8 -8 -8h-28q-8 0 -8 8 z" />
<glyph unicode="O" d="M59 342q0 162 75.5 256.5t206.5 94.5q132 0 207 -94t75 -257q0 -164 -75 -258t-207 -94q-131 0 -206.5 94t-75.5 258zM103 342q0 -147 62.5 -228.5t175.5 -81.5t176 82t63 228t-63 228t-176 82t-175.5 -82t-62.5 -228z" />
<glyph unicode="P" horiz-adv-x="613" d="M93 8v667q0 8 8 8h236q105 0 163 -52.5t58 -147.5q0 -208 -283 -208h-139v-267q0 -8 -8 -8h-27q-8 0 -8 8zM136 315h139q240 0 240 168q0 76 -47.5 118.5t-130.5 42.5h-201v-329z" />
<glyph unicode="Q" d="M59 342q0 162 75.5 256.5t206.5 94.5t206.5 -94.5t75.5 -256.5q0 -126 -44.5 -207.5t-111.5 -111.5q-6 -2 -8.5 -5t0 -5.5t8.5 -3.5q31 -8 67.5 -34t66.5 -63l40 -55q5 -7 -1 -11l-20 -14q-7 -5 -11 1l-42 53q-76 104 -226 104q-131 0 -206.5 94t-75.5 258zM103 342 q0 -147 62.5 -228.5t175.5 -81.5t176 82t63 228t-63 228t-176 82t-175.5 -82t-62.5 -228z" />
<glyph unicode="R" horiz-adv-x="650" d="M93 8v667q0 8 8 8h259q95 0 148.5 -47t53.5 -132q0 -134 -154 -181q-20 -7 -1 -16q66 -31 107 -125l73 -173q4 -9 -6 -9h-28q-7 0 -10 6l-68 161q-57 137 -203 137h-136v-296q0 -8 -8 -8h-27q-8 0 -8 8zM136 344h153q108 0 168.5 42t60.5 118q0 66 -42 103t-116 37h-224 v-300z" />
<glyph unicode="S" horiz-adv-x="589" d="M67 47l8 24q3 8 11 5l32 -13q82 -31 172 -31q81 0 136 38t55 103q0 82 -112 125l-154 57q-74 28 -106.5 69.5t-32.5 101.5q0 78 56.5 122.5t151.5 44.5q70 0 148 -24l47 -15q8 -2 5 -10l-8 -23q-2 -8 -10 -5l-45 15q-68 21 -137 21q-74 0 -119 -34t-45 -92 q0 -42 23.5 -75.5t88.5 -57.5l151 -57q68 -26 105 -64t37 -99q0 -84 -66.5 -133.5t-168.5 -49.5q-97 0 -186 35l-33 12q-7 4 -4 10z" />
<glyph unicode="T" horiz-adv-x="618" d="M44 652v23q0 8 8 8h513q8 0 8 -8v-23q0 -8 -8 -8h-235v-636q0 -8 -8 -8h-26q-8 0 -8 8v636h-236q-8 0 -8 8z" />
<glyph unicode="U" horiz-adv-x="663" d="M83 265v410q0 8 8 8h27q8 0 8 -8v-410q0 -111 53.5 -172t151.5 -61t152 61.5t54 171.5v410q0 8 8 8h26q8 0 8 -8v-410q0 -130 -65 -202.5t-183 -72.5t-183 72.5t-65 202.5z" />
<glyph unicode="V" horiz-adv-x="665" d="M43 674q-4 9 6 9h29q7 0 10 -6l209 -498q21 -49 30 -99q1 -3 3.5 -4.5t5 0t2.5 4.5q9 50 30 99l210 498q3 6 10 6h28q10 0 6 -9l-221 -522q-26 -64 -46 -145q-1 -7 -9 -7h-27q-8 0 -9 7q-22 89 -46 145z" />
<glyph unicode="W" horiz-adv-x="959" d="M52 674q-3 9 6 9h28q8 0 9 -7l151 -494q10 -34 20 -93q1 -6 5 -6t5 6q5 42 22 93l164 494q1 7 9 7h18q8 0 9 -7l164 -494q20 -65 22 -93q0 -6 4.5 -6t5.5 6q5 41 20 93l151 494q1 7 9 7h27q9 0 6 -9l-160 -527q-27 -98 -35 -140q-1 -7 -8 -7h-29q-7 0 -8 7 q-15 73 -37 138l-132 399q-8 27 -12 51q-1 4 -3.5 6t-4.5 0t-3 -6q-7 -29 -13 -51l-132 -399q-22 -65 -37 -138q-1 -7 -8 -7h-29q-7 0 -8 7q-11 55 -35 140z" />
<glyph unicode="X" horiz-adv-x="646" d="M66 10l203 303q9 17 19 25q6 4 7 7q0 4 -3 7q-10 4 -23 28l-197 293q-7 10 5 10h32q6 0 9 -5l197 -294q8 -13 16 0l197 294q3 5 9 5h32q11 0 6 -10l-197 -293q-16 -24 -23 -28q-8 -6 4 -14q8 -5 19 -25l203 -303q5 -10 -6 -10h-32q-6 0 -9 5l-203 305q-7 12 -16 0 l-203 -305q-3 -5 -9 -5h-32q-12 0 -5 10z" />
<glyph unicode="Y" horiz-adv-x="642" d="M45 673q-5 10 6 10h32q6 0 9 -5l167 -252q35 -55 56 -104q1 -5 5.5 -5t6.5 5q24 56 56 104l167 252q3 5 9 5h32q11 0 6 -10l-183 -274q-40 -61 -56 -100t-16 -94v-197q0 -8 -8 -8h-27q-8 0 -8 8v197q0 56 -16 95t-55 99z" />
<glyph unicode="Z" horiz-adv-x="598" d="M62 15q-3 7 1 11q21 26 62 89l310 473q23 32 34 44q4 5 4.5 8.5t-2 5t-7.5 1.5q-36 -3 -62 -3h-314q-8 0 -8 8v23q0 8 8 8h434q6 0 12.5 -9.5t0.5 -15.5q-30 -35 -58 -81l-316 -481q-6 -9 -33 -44q-6 -7 -4 -11.5t10 -3.5q34 3 61 3h330q9 0 7 -9l-7 -24q-1 -7 -9 -7 h-440q-6 0 -9 6z" />
<glyph unicode="[" horiz-adv-x="315" d="M113 -90v819q0 8 8 8h112q8 0 8 -8v-23q0 -8 -8 -8h-79v-757h79q8 0 8 -8v-23q0 -8 -8 -8h-112q-8 0 -8 8z" />
<glyph unicode="\" horiz-adv-x="446" d="M25 729q-4 9 6 9h27q7 0 10 -6l343 -821q4 -9 -6 -9h-27q-7 0 -10 6z" />
<glyph unicode="]" horiz-adv-x="315" d="M74 -67q0 8 8 8h79v757h-79q-8 0 -8 8v23q0 8 8 8h112q8 0 8 -8v-819q0 -8 -8 -8h-112q-8 0 -8 8v23z" />
<glyph unicode="^" horiz-adv-x="470" d="M69 353l144 316q3 6 10 6h25q7 0 10 -6l144 -316q4 -9 -6 -9h-27q-7 0 -10 6l-124 276l-123 -276q-3 -6 -10 -6h-27q-10 0 -6 9z" />
<glyph unicode="_" horiz-adv-x="475" d="M-10 -178q0 8 8 8h480q8 0 8 -8v-24q0 -8 -8 -8h-480q-8 0 -8 8v24z" />
<glyph unicode="`" horiz-adv-x="238" d="M56 691q-3 4 -1.5 7t6.5 3h32q6 0 10 -5l80 -104q7 -10 -5 -10h-25q-6 0 -10 5z" />
<glyph unicode="a" horiz-adv-x="501" d="M49 131q0 65 44.5 103.5t127.5 39.5h164v17q0 73 -38 113.5t-107 40.5q-51 0 -96 -12l-35 -12q-8 -2 -10 6l-8 23q-2 8 6 10l37 11q45 15 107 15q86 0 136.5 -52.5t50.5 -142.5v-283q0 -8 -8 -8h-23q-8 0 -8 8v53q-1 9 -6 9t-11 -9q-54 -71 -169 -71q-72 0 -113 37.5 t-41 103.5zM91 132q0 -48 29.5 -75t83.5 -27q85 0 133 49.5t48 137.5v17h-164q-65 0 -97.5 -27.5t-32.5 -74.5z" />
<glyph unicode="b" horiz-adv-x="548" d="M83 55v638q0 8 8 8h26q8 0 8 -8v-203q0 -55 -4 -94q-1 -7 3 -8.5t8 5.5q55 93 162 93q94 0 147 -66t53 -182t-56 -182t-155 -66q-69 0 -130 28l-64 27q-6 3 -6 10zM125 77l45 -23q50 -23 113 -23q79 0 124 55t45 152t-42.5 152t-117.5 55q-81 0 -124 -62.5t-43 -162.5 v-143z" />
<glyph unicode="c" horiz-adv-x="464" d="M54 238q0 117 57 182.5t164 65.5q42 0 95 -16l25 -7q8 -2 5 -10l-7 -22q-3 -8 -11 -6l-24 8q-41 12 -82 12q-89 0 -134.5 -54t-45.5 -153q0 -98 45.5 -152.5t131.5 -54.5q46 0 91 14l26 8q7 2 10 -5l7 -22q3 -8 -5 -10l-26 -8q-59 -18 -102 -18q-106 0 -163 66t-57 182z " />
<glyph unicode="d" horiz-adv-x="548" d="M54 238q0 116 55.5 181.5t155.5 66.5q69 0 127 -27l31 -15v249q0 8 8 8h26q8 0 8 -8v-685q0 -8 -8 -8h-23q-8 0 -8 8v70q-1 7 -4 7.5t-8 -6.5q-59 -89 -159 -89q-94 0 -147.5 66.5t-53.5 181.5zM96 238q1 -96 43.5 -151.5t116.5 -55.5q81 0 124 62.5t43 162.5v144l-45 22 q-49 23 -112 23q-80 -1 -125.5 -55.5t-44.5 -151.5z" />
<glyph unicode="e" horiz-adv-x="495" d="M54 238q0 115 57 181.5t155 66.5q83 0 129 -38t46 -105q0 -99 -127 -121l-214 -36q10 -74 53.5 -114.5t112.5 -40.5q59 0 99 13l24 8q8 2 11 -6l7 -23q3 -8 -5 -10l-25 -7q-52 -16 -111 -16q-99 0 -155.5 66.5t-56.5 181.5zM96 225l210 36q93 17 93 82q0 49 -35 75.5 t-98 26.5q-81 0 -125 -56t-45 -164z" />
<glyph unicode="f" horiz-adv-x="317" d="M58 444v24q0 8 8 8h45v99q0 63 32 100t87 37q26 0 48 -11l14 -6q7 -4 4 -10l-10 -22q-4 -7 -10 -4l-11 5q-17 7 -35 7q-36 0 -56.5 -26t-20.5 -70v-99h111q8 0 8 -8v-24q0 -8 -8 -8h-111v-428q0 -8 -8 -8h-26q-8 0 -8 8v428h-45q-8 0 -8 8z" />
<glyph unicode="g" horiz-adv-x="544" d="M54 238q0 117 57 182.5t159 65.5q64 0 125 -28l65 -29q6 -3 6 -10v-443q0 -93 -53.5 -144t-156.5 -51q-65 0 -117 16l-41 12q-8 2 -5 10l8 23q2 8 10 6l39 -12q47 -14 105 -14q165 0 170 152q1 60 3 107q1 7 -3 8.5t-8 -5.5q-58 -94 -164 -94q-92 0 -145.5 66.5 t-53.5 181.5zM96 239q0 -94 42 -151t118 -57q81 0 124 63t43 163v143l-45 22q-46 23 -110 23q-81 -1 -126.5 -54.5t-45.5 -151.5z" />
<glyph unicode="h" horiz-adv-x="556" d="M83 8v685q0 8 8 8h26q8 0 8 -8v-203q0 -57 -4 -94q-1 -7 3 -8.5t8 5.5q55 93 173 93q80 0 126 -53t46 -143v-282q0 -8 -8 -8h-25q-8 0 -8 8v280q0 74 -35.5 115.5t-97.5 41.5q-93 0 -135.5 -64t-42.5 -161v-212q0 -8 -8 -8h-26q-8 0 -8 8z" />
<glyph unicode="i" horiz-adv-x="236" d="M58 444v24q0 8 8 8h79q8 0 8 -8v-460q0 -8 -8 -8h-26q-8 0 -8 8v428h-45q-8 0 -8 8zM90 674q0 32 32 32q31 0 31 -32q0 -33 -31 -33q-32 0 -32 33z" />
<glyph unicode="j" horiz-adv-x="236" d="M41 -196q-5 7 1 11l32 24q37 27 37 85v512h-45q-8 0 -8 8v24q0 8 8 8h79q8 0 8 -8v-544q0 -75 -55 -117l-32 -25q-7 -5 -11 2zM90 674q0 32 32 32q31 0 31 -32q0 -33 -31 -33q-32 0 -32 33z" />
<glyph unicode="k" horiz-adv-x="486" d="M83 8v685q0 8 8 8h26q8 0 8 -8v-433h22q27 0 56.5 19t44 34.5t44.5 49.5l91 108q4 5 10 5h33q5 0 6.5 -3t-1.5 -7l-102 -121q-69 -84 -106 -98q-11 -5 0 -9q28 -9 51.5 -32.5t60.5 -68.5l103 -127q7 -10 -5 -10h-33q-6 0 -10 5l-94 116q-24 29 -32 38.5t-29 28.5t-41 26 t-45 7h-24v-213q0 -8 -8 -8h-26q-8 0 -8 8z" />
<glyph unicode="l" horiz-adv-x="238" d="M83 70v623q0 8 8 8h26q8 0 8 -8v-623q0 -39 29 -39q2 0 7.5 1t8 0t4.5 -4l10 -24q4 -8 -7 -11t-23 -3q-33 0 -52 21.5t-19 58.5z" />
<glyph unicode="m" horiz-adv-x="862" d="M83 8v460q0 8 8 8h24q8 0 8 -8v-70q0 -6 3.5 -6.5t7.5 5.5q30 45 67.5 67t93.5 22q104 0 142 -102q2 -6 7 -6t8 5q59 103 173 103q73 0 116 -53t43 -143v-282q0 -8 -8 -8h-26q-8 0 -8 8v280q0 74 -31 115.5t-87 41.5q-86 0 -128 -61t-42 -164v-212q0 -8 -8 -8h-25 q-8 0 -8 8v281q0 73 -32 114.5t-88 41.5q-85 0 -126.5 -61t-41.5 -164v-212q0 -8 -8 -8h-26q-8 0 -8 8z" />
<glyph unicode="n" horiz-adv-x="556" d="M83 8v460q0 8 8 8h24q8 0 8 -8v-71q0 -4 1.5 -6t4.5 -0.5t5 5.5q58 90 171 90q80 0 126 -53t46 -143v-282q0 -8 -8 -8h-25q-8 0 -8 8v280q0 73 -35.5 115t-97.5 42q-84 0 -131 -59t-47 -166v-212q0 -8 -8 -8h-26q-8 0 -8 8z" />
<glyph unicode="o" horiz-adv-x="531" d="M54 238q0 115 57 181.5t155 66.5t155 -66.5t57 -181.5q0 -114 -57 -181t-155 -67t-155 67t-57 181zM96 238q0 -97 45.5 -152t124.5 -55t124 55t45 152t-44.5 152t-124.5 55t-125 -55t-45 -152z" />
<glyph unicode="p" horiz-adv-x="548" d="M83 -202v670q0 8 8 8h24q8 0 8 -8v-70q0 -7 3.5 -8t7.5 6q58 90 160 90q94 0 147 -66t53 -182t-56 -182t-155 -66q-69 0 -126 27l-32 15v-234q0 -8 -8 -8h-26q-8 0 -8 8zM125 76l45 -22q47 -23 113 -23q79 0 124 55t45 152t-42 152t-118 55q-81 0 -124 -62.5t-43 -162.5 v-144z" />
<glyph unicode="q" horiz-adv-x="543" d="M54 238q0 116 56 182t156 66q68 0 129 -28l64 -29q6 -3 6 -10v-621q0 -8 -8 -8h-26q-8 0 -8 8v187q0 48 5 95q1 7 -3.5 8.5t-8.5 -5.5q-55 -93 -161 -93q-95 0 -148 66t-53 182zM96 238q0 -97 42 -152t118 -55q81 0 124 62t43 162v145l-45 22q-50 23 -112 23 q-80 0 -125 -55t-45 -152z" />
<glyph unicode="r" horiz-adv-x="362" d="M83 8v460q0 8 8 8h24q8 0 8 -8v-85q1 -5 4.5 -6t6.5 4q57 101 166 105q8 0 8 -8v-25q0 -8 -8 -8q-81 -4 -128 -73t-47 -189v-175q0 -8 -8 -8h-26q-8 0 -8 8z" />
<glyph unicode="s" horiz-adv-x="465" d="M57 33l10 22q3 7 10 4l20 -8q49 -20 136 -20q64 0 100 24.5t36 68.5q0 62 -76 84l-125 36q-102 28 -102 119q0 57 44 90t122 33q65 0 113 -15l37 -12q8 -2 5 -10l-8 -23q-2 -7 -10 -5l-35 11q-42 13 -101 13q-58 0 -91.5 -22t-33.5 -60q0 -60 75 -82l123 -36 q105 -28 105 -121q0 -63 -47 -98.5t-131 -35.5q-89 0 -151 25l-20 8q-8 3 -5 10z" />
<glyph unicode="t" horiz-adv-x="321" d="M58 444v24q0 8 8 8h45v123q0 8 7 9l26 9q9 4 9 -7v-134h111q8 0 8 -8v-24q0 -8 -8 -8h-111v-332q0 -73 60 -73q14 0 26 4q7 3 10 -4l9 -23q2 -5 -2.5 -9t-13 -5.5t-16 -2.5t-13.5 -1q-48 0 -75 29.5t-27 83.5v333h-45q-8 0 -8 8z" />
<glyph unicode="u" horiz-adv-x="556" d="M79 186v282q0 8 8 8h25q8 0 8 -8v-280q0 -73 35.5 -115t97.5 -42q84 0 131 59t47 166v212q0 8 8 8h26q8 0 8 -8v-460q0 -8 -8 -8h-24q-8 0 -8 8v71q0 4 -1.5 6t-4.5 0.5t-5 -5.5q-58 -90 -171 -90q-80 0 -126 53t-46 143z" />
<glyph unicode="v" horiz-adv-x="526" d="M43 467q-4 9 6 9h28q7 0 10 -6l134 -293q27 -65 36 -98q2 -5 6 -5t6 5q10 37 36 98l135 293q3 6 10 6h27q10 0 6 -9l-146 -316q-29 -65 -51 -144q-1 -7 -9 -7h-28q-8 0 -9 7q-18 71 -51 144z" />
<glyph unicode="w" horiz-adv-x="748" d="M47 467q-4 9 7 9h27q8 0 9 -7l94 -292q13 -45 27 -98q1 -6 5 -6t6 6q21 70 32 99l104 292q2 6 9 6h14q7 0 9 -6l105 -292q19 -58 30 -99q2 -6 6.5 -6t5.5 6q9 40 27 98l94 292q1 7 9 7h26q11 0 7 -9l-103 -319q-24 -70 -42 -141q-1 -7 -9 -7h-28q-8 0 -9 7 q-18 60 -44 134l-72 201q-8 21 -13 45q-1 6 -4 8t-5.5 -0.5t-3.5 -7.5q-3 -22 -12 -45l-73 -201q-36 -108 -43 -134q-1 -7 -9 -7h-29q-6 0 -9 7q-11 46 -41 141z" />
<glyph unicode="x" horiz-adv-x="509" d="M56 10l149 208l12 16q7 5 7 6v1q0 1 -6 7q-2 2 -12 16l-146 202q-7 10 5 10h32q6 0 10 -5l141 -198q6 -10 12 0l142 198q4 5 10 5h31q12 0 5 -10l-145 -202q-12 -16 -17 -19q-8 -6 0 -8q6 -2 17 -19l150 -208q7 -10 -5 -10h-32q-6 0 -10 5l-146 204q-6 9 -12 0l-146 -204 q-4 -5 -10 -5h-31q-12 0 -5 10z" />
<glyph unicode="y" horiz-adv-x="534" d="M43 467q-4 9 6 9h28q7 0 10 -6l138 -301q28 -62 35 -92q2 -6 6 -6t6 6q11 36 39 92l136 301q3 6 10 6h28q10 0 6 -9l-305 -671q-3 -6 -10 -6h-27q-10 0 -6 9l78 172q25 53 -12 137z" />
<glyph unicode="z" horiz-adv-x="462" d="M55 21q24 29 43 58l218 319q19 25 25 30q4 4 2.5 7.5t-6.5 2.5q-34 -2 -44 -2h-222q-8 0 -8 8v24q0 8 8 8h327q7 0 11 -7.5t-1 -13.5q-21 -22 -40 -51l-222 -326q-2 -4 -24 -30q-4 -5 -2.5 -8t7.5 -2q32 2 43 2h227q9 0 7 -9l-7 -24q-1 -7 -9 -7h-322q-7 0 -11.5 8 t0.5 13z" />
<glyph unicode="{" horiz-adv-x="330" d="M66 308v24q0 8 8 8h4q22 0 36.5 15.5t14.5 42.5v235q0 51 31 80.5t88 31.5q8 0 8 -8v-23q0 -8 -8 -8q-37 -2 -57.5 -21t-20.5 -52v-235q0 -54 -29 -70q-9 -5 -9 -7.5t9 -7.5q29 -18 29 -72v-233q0 -33 20.5 -52.5t57.5 -21.5q8 0 8 -8v-23q0 -8 -8 -8q-57 2 -88 31.5 t-31 81.5v233q0 28 -14.5 43.5t-36.5 15.5h-4q-8 0 -8 8z" />
<glyph unicode="|" horiz-adv-x="267" d="M113 -202v932q0 8 8 8h25q8 0 8 -8v-932q0 -8 -8 -8h-25q-8 0 -8 8z" />
<glyph unicode="}" horiz-adv-x="330" d="M74 -74q0 8 8 8q37 2 57.5 21.5t20.5 52.5v233q0 54 29 72q9 5 9 7.5t-9 7.5q-29 16 -29 70v235q0 33 -20.5 52t-57.5 21q-8 0 -8 8v23q0 8 8 8q57 -2 88 -31.5t31 -80.5v-235q0 -27 14.5 -42.5t36.5 -15.5h4q8 0 8 -8v-24q0 -8 -8 -8h-4q-22 0 -36.5 -15.5t-14.5 -43.5 v-233q0 -52 -31 -81.5t-88 -31.5q-8 0 -8 8v23z" />
<glyph unicode="~" horiz-adv-x="502" d="M62 295l27 44q31 52 89 52q35 0 67 -25l38 -28q21 -15 42 -15q35 0 54 31l18 30q3 5 9 5h29q12 0 5 -10l-27 -45q-31 -51 -88 -51q-35 0 -66 24l-39 29q-20 14 -42 14q-36 0 -55 -30l-18 -30q-3 -5 -9 -5h-29q-10 0 -5 10z" />
<glyph unicode="&#xa2;" horiz-adv-x="464" d="M54 446q0 107 48 171.5t139 74.5v80q0 8 8 8h25q8 0 8 -8v-78q37 -1 88 -16l25 -7q8 -2 5 -10l-7 -22q-3 -8 -11 -6l-24 8q-36 10 -76 12v-414q42 2 82 14l26 8q7 2 10 -5l7 -22q3 -8 -5 -10l-26 -8q-58 -17 -94 -18v-79q0 -8 -8 -8h-25q-8 0 -8 8v81q-91 10 -139 75 t-48 171zM96 446q0 -88 37 -141.5t108 -63.5v410q-72 -10 -108.5 -63.5t-36.5 -141.5z" />
<glyph unicode="&#xa3;" horiz-adv-x="561" d="M34 315v24q0 8 8 8h91v156q0 89 50.5 139.5t139.5 50.5q48 0 90 -13l30 -9q8 -2 5 -10l-8 -23q-2 -8 -10 -6l-29 9q-44 11 -78 11q-69 0 -108 -39.5t-39 -109.5v-156h184q8 0 8 -8v-24q0 -8 -8 -8h-184v-88q0 -89 -50 -168q-4 -7 -1.5 -12t10.5 -3q19 4 57 4h313 q8 0 8 -8v-24q0 -8 -8 -8h-426q-6 0 -9 6l-5 9q-3 6 0 11l22 35q46 70 46 157v89h-91q-8 0 -8 8z" />
<glyph unicode="&#xa5;" horiz-adv-x="652" d="M50 673q-5 10 6 10h32q6 0 9 -5l167 -252q35 -55 56 -104q2 -5 6 -5t6 5q24 56 56 104l167 252q3 5 9 5h32q11 0 6 -10l-183 -274q-38 -58 -49 -83h137q8 0 8 -8v-23q0 -8 -8 -8h-151q-9 -31 -9 -72v-3h160q8 0 8 -8v-23q0 -8 -8 -8h-160v-155q0 -8 -8 -8h-27q-8 0 -8 8 v155h-160q-8 0 -8 8v23q0 8 8 8h160v3q0 41 -9 72h-151q-8 0 -8 8v23q0 8 8 8h137q-11 25 -48 83z" />
<glyph unicode="&#xa8;" horiz-adv-x="291" d="M45 674q0 32 31 32t31 -32t-31 -32t-31 32zM186 674q0 32 31 32t31 -32t-31 -32t-31 32z" />
<glyph unicode="&#xa9;" horiz-adv-x="789" d="M51 342q0 157 94.5 254t248.5 97t248.5 -97t94.5 -254q0 -158 -94.5 -255t-248.5 -97t-248.5 97t-94.5 255zM90 342q0 -141 83.5 -227.5t220.5 -86.5t220.5 86.5t83.5 227.5t-83.5 227t-220.5 86t-220.5 -86t-83.5 -227zM227 343q0 89 45 141.5t123 52.5q43 0 84 -14 l21 -7q8 -3 5 -11l-7 -20q-3 -8 -11 -5l-20 7q-39 12 -72 12q-60 0 -95 -41.5t-35 -114.5q0 -75 35 -116.5t95 -41.5q38 0 71 12l21 7q8 3 11 -5l7 -21q3 -8 -5 -10l-22 -7q-41 -13 -83 -13q-78 0 -123 52.5t-45 142.5z" />
<glyph unicode="&#xab;" horiz-adv-x="504" d="M84 234v7q0 6 4 10l130 156q4 5 10 5h32q5 0 6.5 -3t-1.5 -7l-135 -164l135 -164q3 -4 1.5 -7t-6.5 -3h-32q-6 0 -10 5l-130 155q-4 4 -4 10zM231 234v7q0 6 4 10l130 156q4 5 10 5h32q5 0 6.5 -3t-1.5 -7l-135 -164l135 -164q3 -4 1.5 -7t-6.5 -3h-32q-6 0 -10 5 l-130 155q-4 4 -4 10z" />
<glyph unicode="&#xad;" horiz-adv-x="442" d="M85 251v24q0 8 8 8h256q8 0 8 -8v-24q0 -8 -8 -8h-256q-8 0 -8 8z" />
<glyph unicode="&#xae;" horiz-adv-x="789" d="M51 342q0 157 94.5 254t248.5 97t248.5 -97t94.5 -254q0 -158 -94.5 -255t-248.5 -97t-248.5 97t-94.5 255zM90 342q0 -141 83.5 -227.5t220.5 -86.5t220.5 86.5t83.5 227.5t-83.5 227t-220.5 86t-220.5 -86t-83.5 -227zM273 171v343q0 8 8 8h139q53 0 84 -27t31 -74 q0 -36 -24 -61.5t-64 -35.5q-3 -2 4 -6q40 -21 54 -61l39 -85q4 -9 -6 -9h-20q-7 0 -10 6l-33 78q-29 62 -105 62h-59v-138q0 -8 -8 -8h-22q-8 0 -8 8zM311 346h75q111 0 111 74q0 64 -77 64h-109v-138z" />
<glyph unicode="&#xb4;" horiz-adv-x="238" d="M55 592l80 104q4 5 10 5h32q5 0 6.5 -3t-1.5 -7l-87 -104q-4 -5 -10 -5h-25q-12 0 -5 10z" />
<glyph unicode="&#xb8;" horiz-adv-x="259" d="M52 -196l7 20q3 7 10 5l15 -5q16 -5 32 -5q26 0 40.5 12t14.5 34q0 43 -57 43h-30q-6 0 -11.5 6t-3.5 13l24 68q1 6 9 6h22q11 0 7 -9l-19 -49h7q42 0 66.5 -21t24.5 -58q0 -39 -25 -61.5t-69 -22.5q-20 0 -43 8l-16 5q-8 3 -5 11z" />
<glyph unicode="&#xbb;" horiz-adv-x="504" d="M92 74l135 164l-135 164q-7 10 5 10h32q6 0 10 -5l130 -156q4 -4 4 -10v-7q0 -6 -4 -10l-130 -155q-4 -5 -10 -5h-32q-12 0 -5 10zM239 74l135 164l-135 164q-7 10 5 10h32q6 0 10 -5l130 -156q4 -4 4 -10v-7q0 -6 -4 -10l-130 -155q-4 -5 -10 -5h-32q-12 0 -5 10z" />
<glyph unicode="&#xd3;" d="M59 342q0 162 75.5 256.5t206.5 94.5q132 0 207 -94t75 -257q0 -164 -75 -258t-207 -94q-131 0 -206.5 94t-75.5 258zM103 342q0 -147 62.5 -228.5t175.5 -81.5t176 82t63 228t-63 228t-176 82t-175.5 -82t-62.5 -228zM312 774l81 84q4 4 10 4h41q4 0 6 -1.5t1.5 -4 t-3.5 -4.5l-94 -84q-4 -4 -10 -4h-27q-5 0 -6.5 3t1.5 7z" />
<glyph unicode="&#xf3;" horiz-adv-x="531" d="M54 238q0 115 57 181.5t155 66.5t155 -66.5t57 -181.5q0 -114 -57 -181t-155 -67t-155 67t-57 181zM96 238q0 -97 45.5 -152t124.5 -55t124 55t45 152t-44.5 152t-124.5 55t-125 -55t-45 -152zM236 592l80 104q4 5 10 5h32q5 0 6.5 -3t-1.5 -7l-87 -104q-4 -5 -10 -5h-25 q-12 0 -5 10z" />
<glyph unicode="&#x104;" d="M48 9l221 526q30 71 49 141q1 7 9 7h28q8 0 9 -7q15 -55 49 -141l224 -530q2 -8 2 -10q-1 -23 -27 -52l-42 -47q-17 -22 -17 -41q0 -35 36 -35q11 0 34 6l11 4q8 3 11 -5l7 -21q3 -6 -4 -10l-16 -6q-23 -8 -43 -8q-35 0 -55.5 19.5t-20.5 53.5q0 35 28 66l40 45 q21 22 13 36q-2 0 -3 5l-79 190h-341l-78 -189q-3 -6 -10 -6h-29q-10 0 -6 9zM188 236h306l-112 266q-24 57 -35 108q-1 3 -3.5 4.5t-5 0t-2.5 -4.5q-14 -55 -36 -108z" />
<glyph unicode="&#x105;" horiz-adv-x="501" d="M49 131q0 65 44.5 103.5t127.5 39.5h164v17q0 73 -38 113.5t-107 40.5q-51 0 -96 -12l-35 -12q-8 -2 -10 6l-8 23q-2 8 6 10l37 11q45 15 107 15q86 0 136.5 -52.5t50.5 -142.5v-291h1q0 -28 -26 -57l-42 -47q-17 -20 -17 -41q0 -35 36 -35q12 0 32 6l13 4q8 3 11 -5 l7 -21q2 -7 -5 -10l-17 -6q-21 -8 -41 -8q-36 0 -56 19.5t-20 53.5q0 36 27 66l41 46q14 17 17 35v61q-1 9 -6 9t-11 -9q-54 -71 -169 -71q-72 0 -113 37.5t-41 103.5zM91 132q0 -48 29.5 -75t83.5 -27q85 0 133 49.5t48 137.5v17h-164q-65 0 -97.5 -27.5t-32.5 -74.5z" />
<glyph unicode="&#x106;" horiz-adv-x="596" d="M59 342q0 163 75.5 257t207.5 94q75 0 141 -25l41 -15q8 -3 5 -11l-9 -23q-4 -7 -10 -4l-42 15q-53 21 -126 22q-114 0 -176.5 -81.5t-62.5 -228.5q0 -146 62.5 -228t176.5 -82q67 0 129 23l39 14q8 3 11 -4l8 -23q3 -8 -4 -11l-40 -14q-72 -27 -143 -27 q-132 0 -207.5 94.5t-75.5 257.5zM304 774l81 84q4 4 10 4h41q4 0 6 -1.5t1.5 -4t-3.5 -4.5l-94 -84q-4 -4 -10 -4h-27q-5 0 -6.5 3t1.5 7z" />
<glyph unicode="&#x107;" horiz-adv-x="464" d="M54 238q0 117 57 182.5t164 65.5q42 0 95 -16l25 -7q8 -2 5 -10l-7 -22q-3 -8 -11 -6l-24 8q-41 12 -82 12q-89 0 -134.5 -54t-45.5 -153q0 -98 45.5 -152.5t131.5 -54.5q46 0 91 14l26 8q7 2 10 -5l7 -22q3 -8 -5 -10l-26 -8q-59 -18 -102 -18q-106 0 -163 66t-57 182z M221 592l80 104q4 5 10 5h32q5 0 6.5 -3t-1.5 -7l-87 -104q-4 -5 -10 -5h-25q-12 0 -5 10z" />
<glyph unicode="&#x118;" horiz-adv-x="602" d="M93 8v667q0 8 8 8h427q9 0 6 -9l-6 -23q-1 -7 -9 -7h-383v-273h327q8 0 8 -8v-24q0 -8 -8 -8h-327v-291h398q8 0 8 -8v-32q6 0 -4 -10l-87 -94q-15 -20 -15 -41q0 -35 35 -35q12 0 33 6l13 4q8 3 11 -5l7 -21q2 -7 -5 -10l-16 -6q-23 -8 -43 -8q-35 0 -55.5 19.5 t-20.5 53.5q0 35 28 66l48 53q18 20 15 24q-5 4 -19 4h-366q-8 0 -8 8z" />
<glyph unicode="&#x119;" horiz-adv-x="495" d="M54 238q0 115 57 181.5t155 66.5q83 0 129 -38t46 -105q0 -99 -127 -121l-214 -36q10 -74 53.5 -114.5t112.5 -40.5q59 0 99 13l24 8q8 2 11 -6l8 -25q1 -6 -3 -10l-127 -111q-23 -19 -23 -42q0 -19 11 -29.5t30 -10.5q12 0 33 6l14 5q7 2 10 -5l7 -19q3 -8 -5 -11 l-17 -6q-27 -8 -42 -8q-37 0 -58.5 20.5t-21.5 55.5q0 36 37 70l51 45q13 12 11.5 17t-18.5 3q-10 -1 -31 -1q-99 0 -155.5 66.5t-56.5 181.5zM96 225l210 36q93 17 93 82q0 49 -35 75.5t-98 26.5q-81 0 -125 -56t-45 -164z" />
<glyph unicode="&#x141;" horiz-adv-x="596" d="M49 225v26q0 6 6 9l76 41v374q0 8 8 8h27q8 0 8 -8v-351l220 118q10 5 10 -6v-26q0 -6 -6 -9l-224 -120v-241h355q8 0 8 -8v-24q0 -8 -8 -8h-390q-8 0 -8 8v250l-72 -39q-10 -5 -10 6z" />
<glyph unicode="&#x142;" horiz-adv-x="286" d="M44 294v31q0 7 6 10l62 28v330q0 8 8 8h26q8 0 8 -8v-311l69 31q9 4 9 -6v-30q0 -7 -6 -10l-72 -33v-264q0 -39 29 -39q2 0 7.5 1t8 0t4.5 -4l10 -24q4 -8 -7 -11t-23 -3q-33 0 -52 21.5t-19 58.5v245l-59 -27q-9 -4 -9 6z" />
<glyph unicode="&#x143;" horiz-adv-x="696" d="M93 8v667q0 8 8 8h34q7 0 10 -6q22 -48 57 -95l321 -450q23 -33 32 -56q1 -4 4 -4.5t5 2t1 6.5q-5 25 -5 73v522q0 8 8 8h27q8 0 8 -8v-667q0 -8 -8 -8h-33q-7 0 -10 6q-20 40 -58 97l-321 450q-22 33 -31 55q-2 5 -7 4t-4 -8q6 -32 6 -73v-523q0 -8 -8 -8h-28q-8 0 -8 8 zM319 774l81 84q4 4 10 4h41q6 0 7.5 -3t-3.5 -7l-94 -84q-4 -4 -10 -4h-27q-5 0 -6.5 3t1.5 7z" />
<glyph unicode="&#x144;" horiz-adv-x="556" d="M83 8v460q0 8 8 8h24q8 0 8 -8v-71q0 -4 1.5 -6t4.5 -0.5t5 5.5q58 90 171 90q80 0 126 -53t46 -143v-282q0 -8 -8 -8h-25q-8 0 -8 8v280q0 73 -35.5 115t-97.5 42q-84 0 -131 -59t-47 -166v-212q0 -8 -8 -8h-26q-8 0 -8 8zM249 592l80 104q4 5 10 5h32q5 0 6.5 -3 t-1.5 -7l-87 -104q-4 -5 -10 -5h-25q-12 0 -5 10z" />
<glyph unicode="&#x15a;" horiz-adv-x="589" d="M67 47l8 24q3 8 11 5l32 -13q82 -31 172 -31q81 0 136 38t55 103q0 82 -112 125l-154 57q-74 28 -106.5 69.5t-32.5 101.5q0 78 56.5 122.5t151.5 44.5q70 0 148 -24l47 -15q8 -2 5 -10l-8 -23q-2 -8 -10 -5l-45 15q-68 21 -137 21q-74 0 -119 -34t-45 -92 q0 -42 23.5 -75.5t88.5 -57.5l151 -57q68 -26 105 -64t37 -99q0 -84 -66.5 -133.5t-168.5 -49.5q-97 0 -186 35l-33 12q-7 4 -4 10zM255 774l81 84q4 4 10 4h41q6 0 7.5 -3t-3.5 -7l-94 -84q-4 -4 -10 -4h-27q-5 0 -6.5 3t1.5 7z" />
<glyph unicode="&#x15b;" horiz-adv-x="465" d="M57 33l10 22q3 7 10 4l20 -8q49 -20 136 -20q64 0 100 24.5t36 68.5q0 62 -76 84l-125 36q-102 28 -102 119q0 57 44 90t122 33q65 0 113 -15l37 -12q8 -2 5 -10l-8 -23q-2 -7 -10 -5l-35 11q-42 13 -101 13q-58 0 -91.5 -22t-33.5 -60q0 -60 75 -82l123 -36 q105 -28 105 -121q0 -63 -47 -98.5t-131 -35.5q-89 0 -151 25l-20 8q-8 3 -5 10zM202 592l80 104q4 5 10 5h32q5 0 6.5 -3t-1.5 -7l-87 -104q-4 -5 -10 -5h-25q-12 0 -5 10z" />
<glyph unicode="&#x179;" horiz-adv-x="598" d="M62 15q-3 7 1 11q21 26 62 89l310 473q23 32 34 44q4 5 4.5 8.5t-2 5t-7.5 1.5q-36 -3 -62 -3h-314q-8 0 -8 8v23q0 8 8 8h434q6 0 12.5 -9.5t0.5 -15.5q-30 -35 -58 -81l-316 -481q-6 -9 -33 -44q-6 -7 -4 -11.5t10 -3.5q34 3 61 3h330q9 0 7 -9l-7 -24q-1 -7 -9 -7 h-440q-6 0 -9 6zM275 774l81 84q4 4 10 4h41q6 0 7.5 -3t-3.5 -7l-94 -84q-4 -4 -10 -4h-27q-5 0 -6.5 3t1.5 7z" />
<glyph unicode="&#x17a;" horiz-adv-x="462" d="M55 21q24 29 43 58l218 319q19 25 25 30q4 4 2.5 7.5t-6.5 2.5q-34 -2 -44 -2h-222q-8 0 -8 8v24q0 8 8 8h327q7 0 11 -7.5t-1 -13.5q-21 -22 -40 -51l-222 -326q-2 -4 -24 -30q-4 -5 -2.5 -8t7.5 -2q32 2 43 2h227q9 0 7 -9l-7 -24q-1 -7 -9 -7h-322q-7 0 -11.5 8 t0.5 13zM203 592l80 104q4 5 10 5h32q5 0 6.5 -3t-1.5 -7l-87 -104q-4 -5 -10 -5h-25q-12 0 -5 10z" />
<glyph unicode="&#x17b;" horiz-adv-x="598" d="M62 15q-3 7 1 11q21 26 62 89l310 473q23 32 34 44q4 5 4.5 8.5t-2 5t-7.5 1.5q-36 -3 -62 -3h-314q-8 0 -8 8v23q0 8 8 8h434q6 0 12.5 -9.5t0.5 -15.5q-30 -35 -58 -81l-316 -481q-6 -9 -33 -44q-6 -7 -4 -11.5t10 -3.5q34 3 61 3h330q9 0 7 -9l-7 -24q-1 -7 -9 -7 h-440q-6 0 -9 6zM273 813q0 30 30 30q14 0 23 -8.5t9 -21.5q0 -14 -9 -22.5t-23 -8.5q-30 0 -30 31z" />
<glyph unicode="&#x17c;" horiz-adv-x="462" d="M55 21q24 29 43 58l218 319q19 25 25 30q4 4 2.5 7.5t-6.5 2.5q-34 -2 -44 -2h-222q-8 0 -8 8v24q0 8 8 8h327q7 0 11 -7.5t-1 -13.5q-21 -22 -40 -51l-222 -326q-2 -4 -24 -30q-4 -5 -2.5 -8t7.5 -2q32 2 43 2h227q9 0 7 -9l-7 -24q-1 -7 -9 -7h-322q-7 0 -11.5 8 t0.5 13zM203 674q0 32 31 32q14 0 23 -8.5t9 -23.5q0 -33 -32 -33q-31 0 -31 33z" />
<glyph unicode="&#x2c6;" horiz-adv-x="334" d="M56 592l89 104q4 5 10 5h24q6 0 10 -5l89 -104q3 -4 1.5 -7t-6.5 -3h-23q-6 0 -10 4l-73 77l-72 -77q-4 -4 -10 -4h-24q-5 0 -6.5 3t1.5 7z" />
<glyph unicode="&#x2da;" horiz-adv-x="238" d="M45 642q0 32 19 50t55 18t56 -18t20 -50t-20 -49.5t-56 -17.5q-74 0 -74 67zM81 642q0 -34 38 -34q40 0 40 34t-40 34q-38 0 -38 -34z" />
<glyph unicode="&#x2dc;" horiz-adv-x="379" d="M52 632l17 35q19 38 58 38q17 0 43 -14l54 -28q20 -9 28 -9q19 0 29 21l12 20q3 6 9 6h19q11 0 6 -10l-17 -32q-17 -38 -58 -38q-20 0 -44 14l-52 26q-18 10 -29 10q-18 0 -29 -20l-11 -22q-3 -6 -10 -6h-19q-10 0 -6 9z" />
<glyph unicode="&#x2000;" horiz-adv-x="431" />
<glyph unicode="&#x2001;" horiz-adv-x="862" />
<glyph unicode="&#x2002;" horiz-adv-x="431" />
<glyph unicode="&#x2003;" horiz-adv-x="862" />
<glyph unicode="&#x2004;" horiz-adv-x="287" />
<glyph unicode="&#x2005;" horiz-adv-x="215" />
<glyph unicode="&#x2006;" horiz-adv-x="143" />
<glyph unicode="&#x2007;" horiz-adv-x="143" />
<glyph unicode="&#x2008;" horiz-adv-x="107" />
<glyph unicode="&#x2009;" horiz-adv-x="172" />
<glyph unicode="&#x200a;" horiz-adv-x="47" />
<glyph unicode="&#x2010;" horiz-adv-x="442" d="M85 251v24q0 8 8 8h256q8 0 8 -8v-24q0 -8 -8 -8h-256q-8 0 -8 8z" />
<glyph unicode="&#x2011;" horiz-adv-x="442" d="M85 251v24q0 8 8 8h256q8 0 8 -8v-24q0 -8 -8 -8h-256q-8 0 -8 8z" />
<glyph unicode="&#x2012;" horiz-adv-x="442" d="M85 251v24q0 8 8 8h256q8 0 8 -8v-24q0 -8 -8 -8h-256q-8 0 -8 8z" />
<glyph unicode="&#x2013;" horiz-adv-x="666" d="M85 251v24q0 8 8 8h480q8 0 8 -8v-24q0 -8 -8 -8h-480q-8 0 -8 8z" />
<glyph unicode="&#x2014;" horiz-adv-x="775" d="M85 251v24q0 8 8 8h589q8 0 8 -8v-24q0 -8 -8 -8h-589q-8 0 -8 8z" />
<glyph unicode="&#x2018;" horiz-adv-x="179" d="M52 607q0 21 17 49l26 45h37l-28 -49q-9 -11 3 -17q20 -8 20 -32q0 -17 -10 -27.5t-27 -10.5q-38 0 -38 42z" />
<glyph unicode="&#x2019;" horiz-adv-x="179" d="M47 570l28 49q9 11 -3 17q-20 8 -20 32q0 17 10 27.5t27 10.5q38 0 38 -42q0 -21 -17 -49l-26 -45h-37z" />
<glyph unicode="&#x201a;" horiz-adv-x="179" d="M47 -67l28 49q9 11 -3 17q-20 8 -20 32q0 17 10 27.5t27 10.5q38 0 38 -42q0 -21 -17 -49l-26 -45h-37z" />
<glyph unicode="&#x201c;" horiz-adv-x="304" d="M52 607q0 21 17 49l26 45h37l-28 -49q-9 -11 3 -17q20 -8 20 -32q0 -17 -10 -27.5t-27 -10.5q-38 0 -38 42zM177 607q0 21 17 49l26 45h37l-28 -49q-9 -11 3 -17q20 -8 20 -32q0 -17 -10 -27.5t-27 -10.5q-38 0 -38 42z" />
<glyph unicode="&#x201d;" horiz-adv-x="305" d="M47 570l28 49q9 11 -3 17q-20 8 -20 32q0 17 10 27.5t27 10.5q38 0 38 -42q0 -21 -17 -49l-26 -45h-37zM173 570l28 49q9 11 -3 17q-20 8 -20 32q0 17 10 27.5t27 10.5q38 0 38 -42q0 -21 -17 -49l-26 -45h-37z" />
<glyph unicode="&#x201e;" horiz-adv-x="305" d="M47 -67l28 49q9 11 -3 17q-20 8 -20 32q0 17 10 27.5t27 10.5q38 0 38 -42q0 -21 -17 -49l-26 -45h-37zM173 -67l28 49q9 11 -3 17q-20 8 -20 32q0 17 10 27.5t27 10.5q38 0 38 -42q0 -21 -17 -49l-26 -45h-37z" />
<glyph unicode="&#x2026;" horiz-adv-x="479" d="M69 30q0 39 37 39q38 0 38 -39q0 -40 -38 -40q-37 0 -37 40zM207 30q0 39 37 39q38 0 38 -39q0 -40 -38 -40q-37 0 -37 40zM345 30q0 39 37 39q38 0 38 -39q0 -40 -38 -40q-37 0 -37 40z" />
<glyph unicode="&#x202f;" horiz-adv-x="172" />
<glyph unicode="&#x2039;" horiz-adv-x="357" d="M84 234v7q0 6 4 10l130 156q4 5 10 5h32q5 0 6.5 -3t-1.5 -7l-135 -164l135 -164q3 -4 1.5 -7t-6.5 -3h-32q-6 0 -10 5l-130 155q-4 4 -4 10z" />
<glyph unicode="&#x203a;" horiz-adv-x="357" d="M92 74l135 164l-135 164q-7 10 5 10h32q6 0 10 -5l130 -156q4 -4 4 -10v-7q0 -6 -4 -10l-130 -155q-4 -5 -10 -5h-32q-12 0 -5 10z" />
<glyph unicode="&#x205f;" horiz-adv-x="215" />
<glyph unicode="&#x20ac;" horiz-adv-x="661" d="M49 278v21q0 8 8 8h68q-1 11 -1 35q0 28 1 42h-68q-8 0 -8 8v22q0 8 8 8h72q18 128 91 199.5t187 71.5q75 0 141 -25l41 -15q8 -3 5 -11l-9 -23q-4 -7 -10 -4l-42 15q-53 21 -126 22q-97 0 -157 -60t-77 -170h270q11 0 7 -9l-8 -23q-2 -6 -9 -6h-264q-1 -14 -1 -42 q0 -24 1 -35h235q11 0 7 -9l-8 -22q-1 -6 -9 -6h-222q15 -113 76 -175.5t159 -62.5q67 0 129 23l39 14q7 3 11 -4l8 -23q3 -8 -4 -11l-40 -14q-72 -27 -143 -27q-116 0 -189 74.5t-90 205.5h-71q-8 0 -8 8z" />
<glyph unicode="&#x2122;" horiz-adv-x="878" d="M24 654v21q0 8 8 8h312q8 0 8 -8v-21q0 -8 -8 -8h-137v-335q0 -8 -8 -8h-23q-8 0 -8 8v335h-136q-8 0 -8 8zM433 311v364q0 8 8 8h40q7 0 9 -6q12 -29 20 -42l88 -174q2 -6 10 -23.5t11 -25.5q3 -10 7 0q6 18 22 49l88 174q10 21 18 42q3 6 10 6h41q8 0 8 -8v-364 q0 -8 -8 -8h-24q-8 0 -8 8v233q0 46 4 75q0 3 -0.5 5t-1.5 2.5t-3 -0.5t-2.5 -4t-1.5 -4t-8 -17t-11 -24l-86 -168q-16 -32 -22 -47q-1 -7 -9 -7h-18q-7 0 -10 6q-6 16 -22 48l-85 168q-3 8 -22 45q-3 6 -5.5 4.5t-1.5 -7.5q3 -22 3 -75v-233q0 -8 -8 -8h-22q-8 0 -8 8z" />
<glyph unicode="&#xe000;" horiz-adv-x="475" d="M0 0v475h475v-475h-475z" />
</font>
</defs>
</svg>
